<svg width="1920" height="1080" viewBox="0 0 1920 1080" fill="none" xmlns="http://www.w3.org/2000/svg">
  <defs>
    <linearGradient id="bg" x1="0" y1="0" x2="1" y2="1">
      <stop offset="0%" stop-color="#0d131d"/>
      <stop offset="100%" stop-color="#111a28"/>
    </linearGradient>
    <linearGradient id="line" x1="0" y1="0" x2="1" y2="0">
      <stop offset="0%" stop-color="#86b8ff" stop-opacity="0.22"/>
      <stop offset="100%" stop-color="#4c8dff" stop-opacity="0.08"/>
    </linearGradient>
    <pattern id="grid" width="32" height="32" patternUnits="userSpaceOnUse">
      <path d="M32 0H0V32" stroke="#9dc1ff" stroke-opacity="0.08"/>
    </pattern>
  </defs>

  <rect width="1920" height="1080" fill="url(#bg)"/>
  <rect width="1920" height="1080" fill="url(#grid)"/>

  <g opacity="0.8" transform="translate(90 120)">
    <rect width="780" height="620" rx="18" fill="#0f1c2e" fill-opacity="0.86"/>
    <rect x="28" y="30" width="724" height="26" rx="8" fill="url(#line)"/>
    <rect x="28" y="74" width="620" height="14" rx="6" fill="#8fb8ff" fill-opacity="0.22"/>
    <rect x="28" y="102" width="710" height="14" rx="6" fill="#8fb8ff" fill-opacity="0.15"/>
    <rect x="28" y="130" width="582" height="14" rx="6" fill="#8fb8ff" fill-opacity="0.15"/>
    <rect x="28" y="170" width="140" height="12" rx="6" fill="#93c7ff" fill-opacity="0.28"/>
    <rect x="176" y="170" width="430" height="12" rx="6" fill="#7aaeff" fill-opacity="0.2"/>
    <rect x="28" y="194" width="320" height="12" rx="6" fill="#7aaeff" fill-opacity="0.18"/>
    <rect x="28" y="232" width="700" height="10" rx="5" fill="#88bfff" fill-opacity="0.14"/>
    <rect x="28" y="252" width="668" height="10" rx="5" fill="#88bfff" fill-opacity="0.14"/>
    <rect x="28" y="272" width="604" height="10" rx="5" fill="#88bfff" fill-opacity="0.14"/>
    <rect x="28" y="292" width="720" height="10" rx="5" fill="#88bfff" fill-opacity="0.14"/>
    <rect x="28" y="312" width="512" height="10" rx="5" fill="#88bfff" fill-opacity="0.14"/>
    <rect x="28" y="352" width="148" height="12" rx="6" fill="#9ac8ff" fill-opacity="0.24"/>
    <rect x="184" y="352" width="260" height="12" rx="6" fill="#8ebdff" fill-opacity="0.17"/>
    <rect x="28" y="376" width="644" height="10" rx="5" fill="#88bfff" fill-opacity="0.14"/>
    <rect x="28" y="396" width="710" height="10" rx="5" fill="#88bfff" fill-opacity="0.14"/>
    <rect x="28" y="416" width="478" height="10" rx="5" fill="#88bfff" fill-opacity="0.14"/>
  </g>

  <g opacity="0.74" transform="translate(960 250)">
    <rect width="840" height="520" rx="18" fill="#102035" fill-opacity="0.9"/>
    <rect x="26" y="30" width="790" height="24" rx="8" fill="#8ab6ff" fill-opacity="0.18"/>
    <text x="34" y="96" font-size="24" font-family="Menlo, Monaco, monospace" fill="#d5e6ff" fill-opacity="0.6">const profile = {</text>
    <text x="34" y="132" font-size="24" font-family="Menlo, Monaco, monospace" fill="#d5e6ff" fill-opacity="0.6">  name: "Pooria Jahedi",</text>
    <text x="34" y="168" font-size="24" font-family="Menlo, Monaco, monospace" fill="#d5e6ff" fill-opacity="0.6">  status: "looking_for_job",</text>
    <text x="34" y="204" font-size="24" font-family="Menlo, Monaco, monospace" fill="#d5e6ff" fill-opacity="0.6">  stack: ["Laravel", "Vue"],</text>
    <text x="34" y="240" font-size="24" font-family="Menlo, Monaco, monospace" fill="#d5e6ff" fill-opacity="0.6">};</text>
    <text x="34" y="300" font-size="24" font-family="Menlo, Monaco, monospace" fill="#d5e6ff" fill-opacity="0.56">export default profile;</text>
  </g>
</svg>
