<svg width="1920" height="1080" viewBox="0 0 1920 1080" fill="none" xmlns="http://www.w3.org/2000/svg">
  <defs>
    <linearGradient id="bg" x1="0" y1="0" x2="1" y2="1">
      <stop offset="0%" stop-color="#f8fbff"/>
      <stop offset="100%" stop-color="#eaf2ff"/>
    </linearGradient>
    <linearGradient id="line" x1="0" y1="0" x2="1" y2="0">
      <stop offset="0%" stop-color="#6ea8ff" stop-opacity="0.14"/>
      <stop offset="100%" stop-color="#2d6cdf" stop-opacity="0.06"/>
    </linearGradient>
    <pattern id="grid" width="32" height="32" patternUnits="userSpaceOnUse">
      <path d="M32 0H0V32" stroke="#1f5fbf" stroke-opacity="0.045"/>
    </pattern>
  </defs>

  <rect width="1920" height="1080" fill="url(#bg)"/>
  <rect width="1920" height="1080" fill="url(#grid)"/>

  <g opacity="0.84" transform="translate(110 120)">
    <rect width="780" height="620" rx="18" fill="white" fill-opacity="0.78"/>
    <rect x="28" y="30" width="724" height="26" rx="8" fill="url(#line)"/>
    <rect x="28" y="74" width="620" height="14" rx="6" fill="#2f6fda" fill-opacity="0.16"/>
    <rect x="28" y="102" width="710" height="14" rx="6" fill="#2f6fda" fill-opacity="0.12"/>
    <rect x="28" y="130" width="582" height="14" rx="6" fill="#2f6fda" fill-opacity="0.12"/>
    <rect x="28" y="170" width="140" height="12" rx="6" fill="#3a7df0" fill-opacity="0.22"/>
    <rect x="176" y="170" width="430" height="12" rx="6" fill="#2661c8" fill-opacity="0.14"/>
    <rect x="28" y="194" width="320" height="12" rx="6" fill="#2661c8" fill-opacity="0.12"/>
    <rect x="28" y="232" width="700" height="10" rx="5" fill="#1853b8" fill-opacity="0.1"/>
    <rect x="28" y="252" width="668" height="10" rx="5" fill="#1853b8" fill-opacity="0.1"/>
    <rect x="28" y="272" width="604" height="10" rx="5" fill="#1853b8" fill-opacity="0.1"/>
    <rect x="28" y="292" width="720" height="10" rx="5" fill="#1853b8" fill-opacity="0.1"/>
    <rect x="28" y="312" width="512" height="10" rx="5" fill="#1853b8" fill-opacity="0.1"/>
    <rect x="28" y="352" width="148" height="12" rx="6" fill="#2f6fda" fill-opacity="0.2"/>
    <rect x="184" y="352" width="260" height="12" rx="6" fill="#2f6fda" fill-opacity="0.11"/>
    <rect x="28" y="376" width="644" height="10" rx="5" fill="#1853b8" fill-opacity="0.1"/>
    <rect x="28" y="396" width="710" height="10" rx="5" fill="#1853b8" fill-opacity="0.1"/>
    <rect x="28" y="416" width="478" height="10" rx="5" fill="#1853b8" fill-opacity="0.1"/>
  </g>

  <g opacity="0.67" transform="translate(980 240)">
    <rect width="820" height="540" rx="18" fill="#f7fbff" fill-opacity="0.86"/>
    <rect x="26" y="30" width="770" height="24" rx="8" fill="#4c86ef" fill-opacity="0.12"/>
    <text x="34" y="96" font-size="24" font-family="Menlo, Monaco, monospace" fill="#2c4f92" fill-opacity="0.52">const profile = {</text>
    <text x="34" y="132" font-size="24" font-family="Menlo, Monaco, monospace" fill="#2c4f92" fill-opacity="0.52">  name: "Pooria Jahedi",</text>
    <text x="34" y="168" font-size="24" font-family="Menlo, Monaco, monospace" fill="#2c4f92" fill-opacity="0.52">  status: "looking_for_job",</text>
    <text x="34" y="204" font-size="24" font-family="Menlo, Monaco, monospace" fill="#2c4f92" fill-opacity="0.52">  stack: ["Laravel", "Vue"],</text>
    <text x="34" y="240" font-size="24" font-family="Menlo, Monaco, monospace" fill="#2c4f92" fill-opacity="0.52">};</text>
    <text x="34" y="300" font-size="24" font-family="Menlo, Monaco, monospace" fill="#2c4f92" fill-opacity="0.5">export default profile;</text>
  </g>
</svg>
